<?xml version="1.0" encoding="UTF-8" standalone="no"?>
<!-- Created with Inkscape (http://www.inkscape.org/) -->

<svg
   width="250.93436mm"
   height="250.7916mm"
   viewBox="0 0 250.93436 250.79159"
   version="1.1"
   id="svg5"
   sodipodi:docname="grovyle_firefox_clean.svg"
   inkscape:version="1.1.1 (3bf5ae0d25, 2021-09-20)"
   xmlns:inkscape="http://www.inkscape.org/namespaces/inkscape"
   xmlns:sodipodi="http://sodipodi.sourceforge.net/DTD/sodipodi-0.dtd"
   xmlns="http://www.w3.org/2000/svg"
   xmlns:svg="http://www.w3.org/2000/svg">
  <sodipodi:namedview
     id="namedview1331"
     pagecolor="#ffffff"
     bordercolor="#666666"
     borderopacity="1.0"
     inkscape:pageshadow="2"
     inkscape:pageopacity="0.0"
     inkscape:pagecheckerboard="0"
     inkscape:document-units="mm"
     showgrid="false"
     inkscape:zoom="0.94738356"
     inkscape:cx="443.32625"
     inkscape:cy="473.4091"
     inkscape:window-width="1920"
     inkscape:window-height="1057"
     inkscape:window-x="-8"
     inkscape:window-y="-8"
     inkscape:window-maximized="1"
     inkscape:current-layer="layer7" />
  <defs
     id="defs2" />
  <g
     id="layer3"
     style="display:inline"
     transform="translate(22.828122,-24.261131)">
    <circle
       style="fill:#08efb5;stroke-width:0.305185"
       id="path4943"
       cx="102.65"
       cy="149.60696"
       r="115.34583" />
    <path
       id="path96"
       style="display:inline;fill:#10396b;fill-opacity:1;stroke-width:0.307409"
       d="M 102.63165,50.84865 A 98.758329,98.758329 0 0 0 75.132041,54.804996 V 72.233907 A 82.170997,82.170997 0 0 0 49.375475,87.104834 L 34.280787,78.390121 A 98.758329,98.758329 0 0 0 6.7806588,126.02183 l 15.0946852,8.71472 a 82.170997,82.170997 0 0 0 -1.414383,14.87041 82.170997,82.170997 0 0 0 1.414383,14.87041 L 6.7806588,173.19208 A 98.758329,98.758329 0 0 0 34.280787,220.8238 l 15.09417,-8.71472 a 82.170997,82.170997 0 0 0 25.757084,14.87093 v 17.42943 a 98.758329,98.758329 0 0 0 27.499609,3.95583 98.758329,98.758329 0 0 0 27.50013,-3.95583 V 226.9795 a 82.170997,82.170997 0 0 0 25.75709,-14.87042 l 15.09417,8.71472 a 98.758329,98.758329 0 0 0 27.49961,-47.6312 l -15.09417,-8.71472 a 82.170997,82.170997 0 0 0 1.41439,-14.87092 82.170997,82.170997 0 0 0 -1.36426,-14.89987 l 15.08073,-8.70644 a 98.758329,98.758329 0 0 0 -27.4991,-47.631717 l -15.0859,8.709546 A 82.170997,82.170997 0 0 0 130.13178,72.179647 V 54.755906 A 98.758329,98.758329 0 0 0 102.63165,50.84865 Z" />
  </g>
  <g
     id="layer1"
     style="display:inline"
     transform="translate(22.828122,-24.261131)">
    <path
       id="rect2018"
       style="display:inline;fill:#08e7e7;stroke-width:2.1423"
       d="m 420.39062,243.59961 v 58.92773 a 179.52756,179.52756 0 0 0 -67.49609,38.9668 l -51.03125,-29.46289 -53.85937,93.28516 51.03125,29.46289 a 179.52756,179.52756 0 0 0 -4.31446,38.96875 179.52756,179.52756 0 0 0 4.31446,38.96875 l -51.03125,29.46289 53.85937,93.28515 51.03125,-29.46289 a 179.52756,179.52756 0 0 0 67.49609,38.9668 v 58.92773 h 107.71485 v -58.92773 a 179.52756,179.52756 0 0 0 67.49609,-38.9668 l 51.03125,29.46289 53.85938,-93.28515 -51.03125,-29.46289 a 179.52756,179.52756 0 0 0 4.31445,-38.96875 179.52756,179.52756 0 0 0 -4.29687,-38.97852 l 51.01367,-29.45312 -53.85938,-93.28516 -51.00781,29.44922 a 179.52756,179.52756 0 0 0 -67.51953,-38.98242 v -58.89844 z m 53.85743,174.94141 47.81054,27.60351 v 55.20703 l -47.81054,27.60352 -47.81055,-27.60352 v -55.20703 z"
       transform="matrix(0.26458333,0,0,0.26458333,-22.828122,24.261131)" />
    <path
       id="path1015"
       style="display:inline;fill:#10396b;stroke-width:1.08253"
       d="m 474.24609,260.93359 -25.20898,46.01172 17.46094,20.36524 v 68.64648 l -55.74805,32.18555 -59.44727,-34.32227 -8.90429,-25.30664 -52.45313,-1.17187 27.24219,44.83789 26.36719,-4.93946 59.44922,34.32422 v 64.3711 l -59.44727,34.32226 -26.36914,-4.9414 -27.24023,44.83984 52.45117,-1.17383 8.90625,-25.30469 59.44922,-34.32226 55.74609,32.18555 v 68.64453 l -17.46289,20.36523 25.21094,46.01172 25.20898,-46.01172 -17.46094,-20.36523 v -68.64453 l 55.75,-32.1875 59.44727,34.32226 8.9043,25.30664 52.45312,1.17188 -27.24219,-44.83789 -26.36718,4.93945 -59.44922,-34.32422 v -64.37109 l 59.44726,-34.32227 26.36914,4.94141 27.24024,-44.83985 -52.45117,1.17383 -8.90625,25.30469 -59.44922,34.32226 -55.74805,-32.18554 v -68.64453 l 17.46289,-20.36524 z m -66.29687,81.54102 -14.23828,8.2207 21.73242,37.64258 14.23828,-8.2207 z m 132.59766,0 -21.73243,37.64258 14.23828,8.2207 21.73243,-37.64258 z m -66.29883,69.95703 53.10156,30.6582 v 61.31641 l -53.10156,30.6582 -53.10157,-30.6582 v -61.31641 z m -146.83399,53.0957 v 16.44141 h 43.46485 v -16.44141 z m 250.20313,0 v 16.44141 h 43.46484 v -16.44141 z m -162.17383,93.63086 -21.73242,37.64258 14.23828,8.2207 21.73242,-37.64257 z m 117.60937,0 -14.23828,8.22071 21.73243,37.64257 14.23828,-8.2207 z"
       transform="matrix(0.26458333,0,0,0.26458333,-22.828122,24.261131)" />
  </g>
  <g
     id="layer7"
     style="display:inline"
     transform="translate(22.828122,-24.261131)">
    <g
       id="layer13"
       style="display:none"
       inkscape:label="layer13">
      <path
         style="display:none;fill:none;stroke:#000000;stroke-width:0.264583px;stroke-linecap:butt;stroke-linejoin:miter;stroke-opacity:1"
         d="M -8.7655237,179.46064 Z"
         id="path3208" />
      <path
         style="display:none;fill:none;stroke:#000000;stroke-width:0.264583px;stroke-linecap:butt;stroke-linejoin:miter;stroke-opacity:1"
         d="M -8.7655216,119.75328 Z"
         id="path2896" />
      <path
         style="display:none;fill:none;stroke:#000000;stroke-width:0.264583px;stroke-linecap:butt;stroke-linejoin:miter;stroke-opacity:1"
         d="M 30.312987,117.31519 Z"
         id="path1778" />
    </g>
    <g
       id="layer8"
       style="display:inline">
      <g
         id="layer18"
         style="display:none">
        <path
           style="display:inline;fill:#c3f600;fill-opacity:1;stroke-width:0.212132"
           d="m 231.46698,374.42741 c -11.7148,-2.49173 -19.47901,-13.02155 -22.03927,-29.88964 l -0.61712,-4.06586 h 5.81074 c 15.84314,0 31.15106,5.62187 40.7152,14.95275 3.06874,2.9939 8.41429,10.21441 8.41429,11.36562 0,0.88494 -6.38705,3.81819 -12.52958,5.7542 -6.39429,2.01537 -15.18997,2.85375 -19.75426,1.88293 z"
           id="path9251"
           transform="matrix(0.26458333,0,0,0.26458333,-22.828122,24.261131)" />
        <path
           style="fill:#cf2c38;fill-opacity:1;stroke-width:0.212132"
           d="m 221.26474,584.50837 c -19.53915,-16.35753 -36.02498,-36.9838 -46.59529,-58.29775 -9.77867,-19.71771 -14.13493,-36.8801 -14.68469,-57.85329 -0.28861,-11.0105 0.60271,-27.07166 1.55558,-28.03067 0.10976,-0.11047 2.92704,0.58954 6.26062,1.55557 10.41054,3.01685 19.97383,4.13265 35.49223,4.14105 7.77818,0.004 17.48322,-0.37103 21.56676,-0.83386 26.72361,-3.02886 56.87124,-10.93881 86.0287,-22.57169 l 10.72183,-4.27766 5.87698,3.8665 c 11.35434,7.47009 28.2931,15.13896 33.43844,15.13896 2.4116,0 2.30421,0.51687 -0.83369,4.01232 -7.21642,8.03869 -21.96212,19.51875 -34.92052,27.18689 -15.5091,9.17751 -30.56135,15.59282 -56.11757,23.91743 -28.34019,9.23146 -32.46277,10.71815 -40.30508,14.53482 -8.44412,4.10956 -13.34666,8.15704 -16.08316,13.27808 -1.42784,2.67204 -1.59017,3.94478 -1.55302,12.17632 0.0257,5.70297 0.51215,11.60814 1.28137,15.55635 1.8468,9.47908 6.48511,22.76408 11.45344,32.8048 2.42608,4.90297 4.33543,8.99439 4.24299,9.09203 -0.0924,0.0976 -3.1641,-2.33066 -6.82592,-5.3962 z"
           id="path9173"
           transform="matrix(0.26458333,0,0,0.26458333,-22.828122,24.261131)" />
        <path
           style="fill:#1fef1f;fill-opacity:1;stroke-width:0.212132"
           d="m 500.57012,725.46224 c -2.89273,-1.47013 -7.95507,-6.25718 -10.54723,-9.9737 -1.01564,-1.45615 -1.86155,-1.54985 -20.85755,-2.31024 -52.39596,-2.09736 -100.38909,-10.88215 -140.3607,-25.69199 -15.33294,-5.68099 -20.72302,-8.45351 -27.48002,-14.135 -9.21798,-7.75077 -30.68586,-29.46352 -38.95308,-39.3974 -10.95798,-13.16709 -26.82284,-34.99878 -26.01806,-35.80356 0.16528,-0.16528 3.61307,1.50642 7.66174,3.71489 49.15736,26.8144 113.76152,47.54788 176.7133,56.71282 22.7129,3.30669 48.69219,5.72513 61.6789,5.74175 5.32381,0.007 5.67734,-0.10444 13.78858,-4.33923 27.72224,-14.47348 58.10464,-36.50839 81.77704,-59.309 l 7.29411,-7.02549 0.46856,-8.20389 c 1.58082,-27.67831 12.18762,-43.61714 32.76071,-49.22955 4.36888,-1.19185 7.59722,-1.51427 15.42479,-1.54049 11.75943,-0.0394 21.20942,1.60159 34.79784,6.04264 l 8.83896,2.8888 -5.55495,1.93124 c -12.70398,4.41669 -24.45227,11.27426 -29.99921,17.51078 -4.60123,5.17325 -7.29176,11.49123 -7.33766,17.23054 -0.0209,2.6048 0.22325,4.99731 0.5424,5.31668 0.31914,0.31938 1.75103,-0.14567 3.18198,-1.03343 9.37991,-5.81934 19.15756,-8.94595 26.39652,-8.44085 16.30379,1.13762 28.36971,17.02757 34.80632,45.83744 1.65096,7.38964 4.17879,24.02077 3.72062,24.47892 -0.10606,0.10607 -1.72393,-1.8924 -3.59527,-4.44103 -10.57391,-14.40094 -24.94109,-23.64505 -40.1716,-25.84716 -10.18416,-1.47247 -20.39345,0.91646 -27.30277,6.38874 -1.4388,1.13955 -4.31594,4.94378 -6.39366,8.45384 -11.79389,19.92447 -32.75704,41.69463 -57.50123,59.71485 -17.34594,12.63235 -39.16592,25.06109 -61.04536,34.77164 l -3.5805,1.5891 z"
           id="path9134"
           transform="matrix(0.26458333,0,0,0.26458333,-22.828122,24.261131)" />
        <path
           style="display:none;fill:#38ca47;fill-opacity:1;stroke-width:0.212132"
           d="M 458.20518,758.61161 C 395.83479,754.29098 334.88313,737.34571 276.12519,707.99125 181.33827,660.63735 118.94102,591.11555 103.3431,515.48083 c -8.2912,-40.20421 -3.886859,-94.92736 10.57424,-131.3831 8.07935,-20.36765 20.57137,-38.05876 34.1267,-48.32998 13.31933,-10.0924 41.91022,-19.34532 59.73884,-19.33338 15.58428,0.0104 23.48433,3.03708 36.90276,14.13804 8.13391,6.72913 14.75933,11.13054 23.55895,15.65072 24.07291,12.36575 63.25605,21.83501 97.68316,23.60675 17.0271,0.87628 23.31117,2.6998 29.03749,8.42612 4.49216,4.49216 6.39972,9.27093 7.52326,18.84709 0.96661,8.23863 0.1527,16.29126 -2.31261,22.8804 -2.85017,7.61776 -9.71256,12.82063 -19.70338,14.93854 -6.1564,1.30507 -17.5422,1.27906 -22.6782,-0.0518 -8.13738,-2.10861 -18.59202,-7.27596 -30.9291,-15.28713 l -5.12142,-3.32563 -10.43493,4.22365 c -30.66211,12.41082 -62.87121,20.72028 -90.23165,23.2784 -19.12794,1.78841 -42.98037,-0.0676 -55.28818,-4.30211 -2.24564,-0.7726 -4.46224,-1.40474 -4.92578,-1.40474 -1.07428,0 -2.34502,8.91791 -2.92824,20.55004 -1.93117,38.51631 14.78431,79.47057 45.69817,111.96419 6.50532,6.83775 16.92886,16.20387 23.33344,20.96636 3.84302,2.8577 5.7375,5.0272 9.7404,11.15442 21.50234,32.91358 51.2579,64.26301 84.06392,88.56688 39.69068,29.40428 89.1891,53.15027 136.02003,65.2532 8.97238,2.31881 9.18998,2.64254 1.41421,2.10388 z M 251.37645,374.4407 c 7.83673,-2.46004 14.49569,-5.71875 14.49569,-7.09379 0,-2.22313 -5.36864,-9.5167 -10.49307,-14.25535 -8.38606,-7.75475 -19.60868,-12.42051 -33.7011,-14.01109 -9.59756,-1.08325 -13.74467,-0.95998 -14.27588,0.42433 -0.6683,1.74156 1.62331,13.43514 3.65384,18.64478 3.33754,8.56294 9.61933,14.87165 17.24775,17.32164 4.73841,1.52181 16.63466,0.99048 23.07277,-1.03052 z"
           id="path9095"
           transform="matrix(0.26458333,0,0,0.26458333,-22.828122,24.261131)" />
        <path
           d="m -12.695831,149.60696 a 115.34583,115.34583 0 0 1 3.9303124,-29.85369 c 5.475821,-20.436043 27.6947026,-8.40513 27.6947026,-8.40513 0,0 -31.625015,3.34045 -31.625015,38.25882 z"
           id="path951"
           style="display:inline;fill:#1fef1f" />
        <path
           d="m 217.99583,149.60696 a 115.34583,115.34583 0 0 1 -57.67291,99.89243 115.34583,115.34583 0 0 1 -115.345838,-1e-5 115.34583,115.34583 0 0 1 -57.672913,-99.89242 c 0,-34.91837 31.625015,-38.25882 31.625015,-38.25882 z"
           id="path889"
           style="display:none;fill:#36842d;fill-opacity:1;stroke:none" />
      </g>
      <g
         id="layer19"
         style="display:inline">
        <path
           id="path2403"
           style="display:inline;fill:#38ca47;fill-opacity:1;stroke:none;stroke-width:3.77953"
           d="m 207.89648,315.85352 c -25.71324,0.10495 -50.07421,13.29492 -50.07421,13.29492 0,0 -25.11422,-13.59955 -51.25977,-13.29102 -21.663456,0.25564 -44.034222,10.05984 -53.412109,45.0586 A 435.95271,435.95271 0 0 0 38.578125,463.125 c -0.02732,0.56506 -0.05003,1.13493 -0.07422,1.70312 a 435.95271,435.95271 0 0 1 0.04883,-1.39257 c -0.02647,0.53444 -0.03624,1.08631 -0.05859,1.625 -0.117766,2.84357 -0.199219,5.72484 -0.199219,8.6875 a 435.95273,435.95273 0 0 0 217.976554,377.54687 435.95273,435.95273 0 0 0 435.95313,0 435.95273,435.95273 0 0 0 217.97656,-377.54687 c -125.45371,0 -106.72001,285.76172 -435.95312,285.76172 0,0 -86.9541,-14.08126 -167.13672,-80.08985 0.051,0.0266 67.35215,35.08399 181.57226,35.08399 0,0 4.60468,10.2913 15.20508,13.39062 0,0 89.83261,-34.92349 126.10742,-102.03515 14.68517,-16.08843 52.16751,-13.70017 74.53907,25.10156 0,0 -4.04269,-108.78091 -68.56641,-65.87696 0,0 -9.3516,-25.4536 43.85742,-41.20312 0,0 -22.66001,-10.31316 -45.86133,-10.38086 -24.69817,-0.0721 -50.0099,11.46607 -49.25,59.41602 -49.22162,49.55024 -97.86328,70.64062 -97.86328,70.64062 0,0 -133.04853,0.92528 -254.35547,-69.11133 L 216.625,575.5 l -22.125,-60 137.83984,-72.32031 33.23438,-6.1875 c 21.02887,0 38.18359,-4.24302 38.18359,-33.23438 0,-28.71413 -14.07122,-34.35742 -34.84179,-34.35742 -18.3971,0 -40.78802,-4.31718 -56.70508,-8.16406 -13.83468,-3.3436 -25.41647,-7.28828 -34.7461,-11.18164 -16.38719,-6.83857 -26.96258,-15.4483 -28.33593,-16.51953 -0.85342,-0.66569 -12.58173,-11.39317 -19.82032,-14.11719 -6.90687,-2.59918 -14.2124,-3.59384 -21.41211,-3.56445 z M 38.552734,463.43555 a 435.95271,435.95271 0 0 1 0.02539,-0.31055 c 0.0043,-0.0881 0.0071,-0.17786 0.01172,-0.26562 -0.0102,0.19424 -0.02741,0.38134 -0.03711,0.57617 z M 118.36914,340.85352 c -0.83826,0.37773 -1.6797,0.76048 -2.5293,1.1621 0.22333,-0.10556 0.45322,-0.22616 0.67578,-0.33007 0.62506,-0.2918 1.23475,-0.5532 1.85352,-0.83203 z m 208.78516,80.02343 c 2.58166,1.70304 5.84111,3.76528 9.64062,5.91602 -0.24436,-0.13442 -0.49861,-0.26202 -0.74219,-0.39649 -3.02654,-1.74009 -5.98237,-3.59938 -8.89843,-5.51953 z m 32.45117,15.36328 c 2.0186,0.41901 3.99621,0.72377 5.83398,0.73438 -0.22343,0.001 -0.44767,0.004 -0.66992,0.004 -1.74954,-0.1193 -3.46443,-0.39704 -5.16406,-0.73829 z M 39.513672,451.56445 c -0.05079,0.45114 -0.09292,0.9108 -0.140625,1.36524 0.04779,-0.45423 0.08975,-0.91431 0.140625,-1.36524 z m -0.535156,5.49805 c -0.05472,0.66375 -0.09829,1.33917 -0.146485,2.00977 0.04831,-0.67057 0.09164,-1.34607 0.146485,-2.00977 z"
           transform="matrix(0.26458333,0,0,0.26458333,-22.828122,24.261131)" />
        <path
           id="path110624"
           style="fill:#169342;fill-opacity:1;stroke:none;stroke-width:0;stroke-miterlimit:0;stroke-dasharray:none"
           d="M 596.5,633.5 C 581.80334,653.75475 559,668 559,668 l 8.54688,24.49023 54.70703,94.87305 66.01953,66.01953 A 435.95275,435.95275 0 0 0 827.46094,728.79883 C 773.38526,689.59897 696.99506,649.99261 596.5,633.5 Z"
           transform="matrix(0.26458333,0,0,0.26458333,-22.828122,24.261131)" />
        <path
           id="path108434"
           style="display:inline;fill:#0d7246;fill-opacity:1;stroke-width:3.77953"
           d="m 598,654 c 57.48973,65.2092 122.90225,106.15319 180.31055,131.78516 a 435.95275,435.95275 0 0 0 10.68554,-10.68555 C 721.51257,745.053 645.18093,703.53997 598,654 Z"
           transform="matrix(0.26458333,0,0,0.26458333,-22.828122,24.261131)" />
        <path
           id="path105396"
           style="display:inline;fill:#0d7246;fill-opacity:1;stroke-width:3.77953"
           d="m 583.89258,667.68555 c 0,0 34.62891,96.66563 137.68554,164.97265 a 435.95275,435.95275 0 0 0 12.66016,-9.34375 c -56.69407,-35.63361 -115.0475,-86.25962 -150.3457,-155.6289 z"
           transform="matrix(0.26458333,0,0,0.26458333,-22.828122,24.261131)" />
        <path
           id="path105366"
           style="display:inline;fill:#0d7246;fill-opacity:1;stroke-width:3.77953"
           d="m 559,668 c 28.67116,89.07171 73.70979,149.91363 118.41211,191.12305 a 435.95275,435.95275 0 0 0 16.5918,-8.94727 C 643.63949,804.97587 590.35382,743.68195 559,668 Z"
           transform="matrix(0.26458333,0,0,0.26458333,-22.828122,24.261131)" />
        <path
           d="m 32.175945,114.06369 c 1.309621,15.71545 15.154182,7.48355 15.154182,7.48355 0,0 -2.750423,-7.93589 -15.154182,-7.48355 z"
           id="path84310"
           style="display:inline;fill:#b2da00;fill-opacity:1" />
        <path
           id="path84799"
           style="display:inline;vector-effect:non-scaling-stroke;fill:#cf2c38;fill-opacity:1;stroke:none;stroke-width:0.00377953;stroke-miterlimit:4;stroke-dasharray:none;stroke-opacity:1;-inkscape-stroke:hairline"
           d="m 321.73438,417.19336 c -37.53278,15.91128 -77.60441,28.12741 -118.69922,28.27148 -14.19943,-0.18859 -28.80456,-1.43086 -42.09375,-6.7832 -17.65553,97.73015 71.55468,155.76367 71.55468,155.76367 0,0 -21.07031,-30.24412 -21.07031,-64.82226 0,-38.15052 92.63015,-24.04151 154.14844,-92.63086 l -0.0391,-0.0176 c -0.25501,9.3e-4 -0.51163,0.004 -0.76563,0.004 -10.35055,-0.70579 -19.79513,-5.65674 -28.7168,-10.58204 -4.92031,-2.8289 -9.71282,-5.88538 -14.31835,-9.20312 z"
           transform="matrix(0.26458333,0,0,0.26458333,-22.828122,24.261131)" />
        <path
           d="m 217.99583,149.60696 a 115.34583,115.34583 0 0 1 -57.67291,99.89243 115.34583,115.34583 0 0 1 -115.345838,-1e-5 115.34583,115.34583 0 0 1 -57.672913,-99.89242 c 0,-34.91837 31.625015,-38.25882 31.625015,-38.25882 0,0 -15.6701803,5.94188 -15.670182,38.57929 -2.5e-6,46.9083 61.100228,75.2873 99.391258,75.2873 87.1096,0 82.15261,-75.60777 115.34557,-75.60777 z"
           id="path85751"
           style="display:inline;fill:#169342;fill-opacity:1" />
        <path
           d="m 2.7574413,207.27996 c 14.8190217,25.6673 58.7378787,49.28533 99.8925487,49.28533 41.15525,0 66.82491,-22.52259 75.63033,-31.328 36.09153,-36.09154 27.01636,-62.93118 39.71551,-75.63033 A 115.34583,115.34583 0 0 1 132.5037,261.02248 115.34583,115.34583 0 0 1 2.7575788,207.27988 Z"
           id="path221547"
           style="fill:#0d7246;fill-opacity:1" />
      </g>
    </g>
    <g
       id="layer9"
       style="display:inline"
       inkscape:label="layer9">
      <g
         id="layer10"
         style="display:inline">
        <circle
           style="display:none;fill:#08efb5;stroke-width:0.305185"
           id="circle186019"
           cx="102.65"
           cy="149.60696"
           r="115.34583" />
        <path
           style="display:none;fill:none;stroke:#000000;stroke-width:0.264583px;stroke-linecap:butt;stroke-linejoin:miter;stroke-opacity:1"
           d="M 194.39479,273.23404 C 171.557,214.90448 131.66035,200.91961 131.66035,200.91961"
           id="path77914" />
        <path
           style="display:none;fill:none;stroke:#000000;stroke-width:0.264583px;stroke-linecap:butt;stroke-linejoin:miter;stroke-opacity:1"
           d="m 213.98725,261.08752 c -63.6073,-7.87947 -82.3269,-60.16791 -82.3269,-60.16791"
           id="path105374" />
        <path
           style="display:none;fill:none;stroke:#000000;stroke-width:0.264583px;stroke-linecap:butt;stroke-linejoin:miter;stroke-opacity:1"
           d="m 135.39271,197.29863 c 56.97943,15.4843 78.59454,63.78889 78.59454,63.78889"
           id="path77912" />
        <path
           style="display:none;fill:none;stroke:#000000;stroke-width:0.264583px;stroke-linecap:butt;stroke-linejoin:miter;stroke-opacity:1"
           d="m 125.07396,201.0028 c 19.84375,61.64791 69.32083,72.23124 69.32083,72.23124"
           id="path77910" />
        <path
           style="display:none;fill:none;stroke:#000000;stroke-width:0.264583px;stroke-linecap:butt;stroke-linejoin:miter;stroke-opacity:1"
           d="m 134.99583,191.87467 c -3.88849,5.35907 -9.92187,9.12813 -9.92187,9.12813 l 2.26151,6.47951 4.74583,-9.46258 3.31141,-0.7211"
           id="path77790" />
        <path
           style="display:none;fill:none;stroke:#000000;stroke-width:0.264583px;stroke-linecap:butt;stroke-linejoin:miter;stroke-opacity:1"
           d="m 125.07396,201.0028 c 19.1681,46.26802 69.32083,72.23124 69.32083,72.23124"
           id="path78272" />
        <path
           style="display:none;fill:none;stroke:#000000;stroke-width:0.264583px;stroke-linecap:butt;stroke-linejoin:miter;stroke-opacity:1"
           d="m 131.66035,200.91961 c 22.87158,44.94804 82.3269,60.16791 82.3269,60.16791"
           id="path78274" />
        <path
           style="display:none;fill:none;stroke:#000000;stroke-width:0.264583px;stroke-linecap:butt;stroke-linejoin:miter;stroke-opacity:1"
           d="m 135.39271,197.29863 c 26.45834,27.78125 87.57708,46.0375 87.57708,46.0375"
           id="path106356" />
        <path
           style="display:none;fill:none;stroke:#000000;stroke-width:0.264583px;stroke-linecap:butt;stroke-linejoin:miter;stroke-opacity:1"
           d="m 135.39271,197.29863 c 37.43854,42.46562 87.57708,46.0375 87.57708,46.0375"
           id="path107327" />
        <path
           style="display:none;fill:none;stroke:#000000;stroke-width:0.264583px;stroke-linecap:butt;stroke-linejoin:miter;stroke-opacity:1"
           d="m 134.99583,191.87467 c 60.4573,9.92187 87.97396,51.46146 87.97396,51.46146 l -42.46562,-2.51354 -48.42287,-42.80286"
           id="path108720" />
        <path
           style="display:none;fill:none;stroke:#000000;stroke-width:0.264583px;stroke-linecap:butt;stroke-linejoin:miter;stroke-opacity:1"
           d="m 127.33547,207.48231 14.47444,25.10205 24.04089,24.04089 14.65337,-15.80266 -48.42287,-42.80286 z"
           id="path110659" />
      </g>
      <g
         id="layer12"
         style="display:none">
        <path
           style="display:inline;fill:none;stroke:#000000;stroke-width:0.079375;stroke-linecap:butt;stroke-linejoin:miter;stroke-miterlimit:4;stroke-dasharray:none;stroke-opacity:1"
           d="m 74.780734,121.99834 c -4.867566,0 -10.791688,-1.14245 -15.003077,-2.16027 -3.660426,-0.88466 -6.724555,-1.92817 -9.193019,-2.95829 -4.335779,-1.80937 -7.134201,-4.08719 -7.497567,-4.37062 -0.2258,-0.17613 -3.328796,-3.01439 -5.244006,-3.73512 -8.354023,-3.14377 -18.913881,2.5741 -18.913881,2.5741"
           id="path3091-9" />
        <path
           style="display:inline;fill:none;stroke:#000000;stroke-width:0.264583px;stroke-linecap:butt;stroke-linejoin:miter;stroke-opacity:1"
           d="m 74.780732,121.99834 c 5.495547,0 9.218775,1.49315 9.218775,9.09043 0,7.67063 -4.5389,8.79315 -10.102788,8.79315 -4.496929,0 -11.599499,-5.23848 -11.599499,-5.23848"
           id="path1259" />
        <path
           style="display:inline;fill:none;stroke:#000000;stroke-width:0.264583px;stroke-linecap:butt;stroke-linejoin:miter;stroke-opacity:1"
           d="m 38.686586,181.54142 c 0,0 -23.60379,-15.35475 -18.932432,-41.21252 L 7.9958349,165.01946 Z"
           id="path3485" />
        <path
           style="fill:none;stroke:#000000;stroke-width:0.264583px;stroke-linecap:butt;stroke-linejoin:miter;stroke-opacity:1"
           d="m 38.686586,181.54142 c 23.011905,37.04358 63.963674,43.67331 63.963674,43.67331"
           id="path3809" />
        <path
           style="display:inline;fill:none;stroke:#000000;stroke-width:0.264583px;stroke-linecap:butt;stroke-linejoin:miter;stroke-opacity:1"
           d="m 62.29722,134.64344 c -9.930548,4.20986 -20.532877,7.44189 -31.40588,7.48001 -3.756932,-0.0499 -7.621086,-0.37841 -11.137186,-1.79455"
           id="path1074" />
        <path
           style="display:inline;fill:none;stroke:#000000;stroke-width:0.079375;stroke-linecap:butt;stroke-linejoin:miter;stroke-miterlimit:4;stroke-dasharray:none;stroke-opacity:1"
           d="m 102.65026,225.21473 c -38.29103,0 -99.3912605,-28.379 -99.391258,-75.2873 1.7e-6,-32.63741 15.670182,-38.57929 15.670182,-38.57929 l 9.307274,23.7734 -8.482303,5.20736 -11.7583201,24.69056 30.6907491,16.52196 10.451957,26.60512 43.854684,16.07344 z"
           id="path1077" />
        <path
           style="display:inline;fill:none;stroke:#000000;stroke-width:0.264583px;stroke-linecap:butt;stroke-linejoin:miter;stroke-opacity:1"
           d="m 38.686584,181.54142 10.451957,26.60512 43.854684,16.07344 9.657035,0.99475"
           id="path1718" />
        <path
           style="display:inline;fill:none;stroke:#000000;stroke-width:0.264583px;stroke-linecap:butt;stroke-linejoin:miter;stroke-opacity:1"
           d="m 18.929184,111.34814 9.307274,23.7734 46.544274,-13.1232"
           id="path2319" />
        <path
           style="display:inline;fill:none;stroke:#000000;stroke-width:0.264583px;stroke-linecap:butt;stroke-linejoin:miter;stroke-opacity:1"
           d="m 19.754155,140.3289 8.482303,-5.20736 46.544274,-13.1232 -12.483512,12.6451"
           id="path2438" />
      </g>
      <g
         id="layer11"
         style="display:none">
        <path
           style="display:inline;fill:none;stroke:#000000;stroke-width:0.079375;stroke-linecap:butt;stroke-linejoin:miter;stroke-miterlimit:4;stroke-dasharray:none;stroke-opacity:1"
           d="m -12.695831,149.60696 c 0,-34.91837 31.625015,-38.25882 31.625015,-38.25882"
           id="path7167" />
        <path
           style="display:inline;fill:none;fill-opacity:1;stroke:#000000;stroke-width:0.079375;stroke-miterlimit:4;stroke-dasharray:none;stroke-opacity:1"
           id="path8720"
           d="m -12.695831,149.60696 a 115.34583,115.34583 0 0 1 3.9303124,-29.85369" />
        <path
           style="display:inline;fill:none;stroke:#000000;stroke-width:0.079375;stroke-linecap:butt;stroke-linejoin:miter;stroke-miterlimit:4;stroke-dasharray:none;stroke-opacity:1"
           d="M -8.7655214,119.75328 C -3.2896976,99.317227 18.929184,111.34814 18.929184,111.34814"
           id="path3091" />
        <path
           style="display:none;fill:none;stroke:#000000;stroke-width:0.264583px;stroke-linecap:butt;stroke-linejoin:miter;stroke-opacity:1"
           d="m -8.7654148,119.75349 -3.9186232,28.75432 31.613222,-37.15967 z"
           id="path967" />
      </g>
      <g
         id="layer14"
         style="display:none">
        <path
           style="display:inline;fill:none;stroke:#000000;stroke-width:0.079375;stroke-linecap:butt;stroke-linejoin:miter;stroke-miterlimit:4;stroke-dasharray:none;stroke-opacity:1"
           d="m 217.99583,149.60696 c -33.19296,0 -28.23597,75.60777 -115.34557,75.60777 -38.29103,0 -99.3912605,-28.379 -99.391258,-75.2873 1.7e-6,-32.63741 15.670182,-38.57929 15.670182,-38.57929"
           id="path79290" />
        <path
           style="display:inline;fill:none;stroke:#000000;stroke-width:0.079375;stroke-linecap:butt;stroke-linejoin:miter;stroke-miterlimit:4;stroke-dasharray:none;stroke-opacity:1"
           d="m -12.695831,149.60696 c 0,-34.91837 31.625015,-38.25882 31.625015,-38.25882"
           id="path79295" />
        <path
           style="display:inline;fill:none;fill-opacity:1;stroke:#000000;stroke-width:0.079375;stroke-miterlimit:4;stroke-dasharray:none;stroke-opacity:1"
           id="circle9028"
           d="m 217.99583,149.60696 a 115.34583,115.34583 0 0 1 -57.67291,99.89243 115.34583,115.34583 0 0 1 -115.345838,-1e-5 115.34583,115.34583 0 0 1 -57.672913,-99.89242" />
        <path
           style="display:none;vector-effect:non-scaling-stroke;fill:none;stroke:#000000;stroke-width:0.00080698;stroke-miterlimit:4;stroke-dasharray:none;stroke-opacity:1;-inkscape-stroke:hairline"
           id="circle219802"
           d="M 217.99583,149.60696 A 115.34583,115.34583 0 0 1 132.5037,261.02248 115.34583,115.34583 0 0 1 2.7575788,207.27988" />
        <path
           style="display:none;fill:none;stroke:#000000;stroke-width:0.264583px;stroke-linecap:butt;stroke-linejoin:miter;stroke-opacity:1"
           d="m 2.7574413,207.27996 c 14.8190217,25.6673 58.7378787,49.28533 99.8925487,49.28533 41.15525,0 66.82491,-22.52259 75.63033,-31.328 36.09153,-36.09154 27.01636,-62.93118 39.71551,-75.63033"
           id="path219905" />
        <path
           style="display:none;fill:none;stroke:#000000;stroke-width:0.264583px;stroke-linecap:butt;stroke-linejoin:miter;stroke-opacity:1"
           d="M 102.65,149.60697 V 264.95301"
           id="path220077" />
        <path
           style="display:none;fill:none;stroke:#000000;stroke-width:0.264583px;stroke-linecap:butt;stroke-linejoin:miter;stroke-opacity:1"
           d="m 102.65,149.60697 81.5163,81.5163"
           id="path220629" />
        <path
           style="display:none;vector-effect:non-scaling-stroke;fill:none;fill-opacity:1;stroke:#000000;stroke-width:0.00305;stroke-miterlimit:4;stroke-dasharray:none;stroke-opacity:1;-inkscape-stroke:hairline"
           id="path220733"
           d="M 209.60831,149.60696 A 106.95833,106.95833 0 0 1 130.33284,252.92078 106.95833,106.95833 0 0 1 10.021356,203.08613" />
      </g>
      <g
         id="layer15"
         style="display:none">
        <path
           style="display:none;fill:none;stroke:#000000;stroke-width:0.264583px;stroke-linecap:butt;stroke-linejoin:miter;stroke-opacity:1"
           d="m 38.686586,181.54142 c 0,0 -23.60379,-15.35475 -18.932432,-41.21252 l 8.586475,27.89696 z"
           id="path79306" />
        <path
           style="display:inline;fill:none;stroke:#000000;stroke-width:0.264583px;stroke-linecap:butt;stroke-linejoin:miter;stroke-opacity:1"
           d="m 62.29722,134.64344 c -9.930548,4.20986 -20.532877,7.44189 -31.40588,7.48001 -3.756932,-0.0499 -7.621086,-0.37841 -11.137186,-1.79455 l 14.432996,15.7362"
           id="path2997" />
        <path
           style="display:none;fill:none;stroke:#000000;stroke-width:0.264583px;stroke-linecap:butt;stroke-linejoin:miter;stroke-opacity:1"
           d="m 73.896717,139.88192 c -16.276713,18.1476 -40.785327,14.41464 -40.785327,24.50863 0,9.1488 5.575196,17.15087 5.575196,17.15087 l -9.410514,-10.60277 0.374178,-22.73128 z"
           id="path3051" />
        <path
           style="display:none;fill:none;stroke:#000000;stroke-width:0.264583px;stroke-linecap:butt;stroke-linejoin:miter;stroke-opacity:1"
           d="m 74.780732,121.99834 c 2.482264,0.0111 5.255291,0.24425 7.106896,2.09383 1.902433,1.98772 2.143575,4.91235 2.104444,7.52522 -0.04897,2.43361 -0.691833,5.13374 -2.78797,6.62541 -2.179565,1.52667 -4.952634,1.63212 -7.520048,1.63532 -2.738583,-0.18674 -5.237825,-1.49632 -7.59835,-2.79947 -1.301832,-0.74848 -2.569934,-1.55739 -3.788484,-2.43521"
           id="path84315" />
        <path
           style="display:none;fill:none;stroke:#000000;stroke-width:0.264583px;stroke-linecap:butt;stroke-linejoin:miter;stroke-opacity:1"
           d="m 19.754155,140.3289 9.896093,7.87847 -0.374176,22.73128 -2.666013,-4.02241 -6.855904,-26.58734"
           id="path84834" />
        <path
           style="display:none;fill:none;stroke:#000000;stroke-width:0.264583px;stroke-linecap:butt;stroke-linejoin:miter;stroke-opacity:1"
           d="m 62.29722,134.64344 -15.481586,11.2721 27.081081,-6.03362 z"
           id="path85652" />
      </g>
      <g
         id="layer16"
         style="display:none">
        <path
           style="display:inline;fill:none;stroke:#000000;stroke-width:0.264583px;stroke-linecap:butt;stroke-linejoin:miter;stroke-opacity:1"
           d="m 32.175945,114.06369 c 12.403759,-0.45234 15.154182,7.48355 15.154182,7.48355"
           id="path3368" />
        <path
           style="fill:none;stroke:#000000;stroke-width:0.264583px;stroke-linecap:butt;stroke-linejoin:miter;stroke-opacity:1"
           d="m 32.175945,114.06369 c 1.309621,15.71545 15.154182,7.48355 15.154182,7.48355"
           id="path3370" />
      </g>
      <g
         id="layer17"
         style="display:none">
        <path
           id="path80309"
           style="display:inline;fill:none;stroke:#000000;stroke-width:0.264583px;stroke-linecap:butt;stroke-linejoin:miter;stroke-opacity:1"
           d="m 38.686584,181.54142 c 5.280374,8.51589 11.9996,16.12236 19.739118,22.4819" />
        <path
           style="fill:none;stroke:#000000;stroke-width:0.264583px;stroke-linecap:butt;stroke-linejoin:miter;stroke-opacity:1"
           d="m 38.686586,181.54142 c 32.095794,18.53052 67.298354,18.28574 67.298354,18.28574"
           id="path3930" />
        <path
           style="fill:none;stroke:#000000;stroke-width:0.264583px;stroke-linecap:butt;stroke-linejoin:miter;stroke-opacity:1"
           d="m 131.87786,181.13699 c -13.02322,13.11017 -25.89292,18.69017 -25.89292,18.69017 l 19.82889,-2.60255 z"
           id="path3932" />
        <path
           style="fill:none;stroke:#000000;stroke-width:0.264583px;stroke-linecap:butt;stroke-linejoin:miter;stroke-opacity:1"
           d="m 143.85828,189.85312 c -9.59771,17.75665 -33.36603,26.9967 -33.36603,26.9967"
           id="path3934" />
        <path
           style="fill:none;stroke:#000000;stroke-width:0.264583px;stroke-linecap:butt;stroke-linejoin:miter;stroke-opacity:1"
           d="m 110.49225,216.84982 c -2.80469,-0.82003 -4.02267,-3.54308 -4.02267,-3.54308"
           id="path3936" />
        <path
           style="fill:none;stroke:#000000;stroke-width:0.264583px;stroke-linecap:butt;stroke-linejoin:miter;stroke-opacity:1"
           d="m 106.46958,213.30674 c -30.232206,0 -48.043877,-9.28342 -48.043877,-9.28342"
           id="path3938" />
        <path
           style="fill:none;stroke:#000000;stroke-width:0.264583px;stroke-linecap:butt;stroke-linejoin:miter;stroke-opacity:1"
           d="m 131.87786,181.13699 c -0.38993,-24.60462 25.16481,-12.97387 25.16481,-12.97387 -14.07822,4.16706 -11.60414,10.90139 -11.60414,10.90139"
           id="path3940" />
        <path
           style="display:inline;fill:none;stroke:#000000;stroke-width:0.264583px;stroke-linecap:butt;stroke-linejoin:miter;stroke-opacity:1"
           d="m 145.43853,179.06451 c 17.0719,-11.35167 18.14176,17.43008 18.14176,17.43008 -5.91914,-10.26629 -15.83656,-10.8982 -19.72201,-6.64147"
           id="path3942" />
        <path
           style="display:none;fill:none;stroke:#000000;stroke-width:0.264583px;stroke-linecap:butt;stroke-linejoin:miter;stroke-opacity:1"
           d="m 106.46958,213.30674 4.02267,3.54308 33.36603,-26.9967 -37.3887,23.45362"
           id="path82250" />
        <path
           style="display:none;fill:none;stroke:#000000;stroke-width:0.264583px;stroke-linecap:butt;stroke-linejoin:miter;stroke-opacity:1"
           d="m 131.87786,181.13699 11.98042,8.71613 1.58025,-10.78861 z"
           id="path82581" />
        <path
           style="display:none;fill:none;stroke:#000000;stroke-width:0.264583px;stroke-linecap:butt;stroke-linejoin:miter;stroke-opacity:1"
           d="m 105.98494,199.82716 0.48464,13.47958 37.3887,-23.45362 -11.98042,-8.71613 -6.06403,16.08762 z"
           id="path82818" />
        <path
           style="fill:none;stroke:#000000;stroke-width:0.264583px;stroke-linecap:butt;stroke-linejoin:miter;stroke-opacity:1"
           d="m 38.686584,181.54142 19.739118,22.4819 47.559238,-4.19616"
           id="path82943" />
        <path
           style="display:inline;fill:none;stroke:#000000;stroke-width:0.264583px;stroke-linecap:butt;stroke-linejoin:miter;stroke-opacity:1"
           d="m 105.98468,199.82715 0.4849,13.47959 -48.043878,-9.28342 z"
           id="path83082" />
        <path
           style="display:inline;fill:none;stroke:#000000;stroke-width:0.264583px;stroke-linecap:butt;stroke-linejoin:miter;stroke-opacity:1"
           d="m 38.686584,181.54142 19.739118,22.4819"
           id="path83201" />
      </g>
    </g>
  </g>
</svg>
