<svg xmlns="http://www.w3.org/2000/svg" xmlns:osb="http://www.openswatchbook.org/uri/2009/osb" xmlns:svg="http://www.w3.org/2000/svg" xmlns:xlink="http://www.w3.org/1999/xlink" id="svg36" width="32" height="32" version="1.1"><metadata id="metadata42"/><defs id="defs40"><g id="page25"><linearGradient id="linearGradient1917" osb:paint="solid"><stop id="stop1919" offset="0" style="stop-color:#151730;stop-opacity:1"/></linearGradient><linearGradient id="linearGradient1921" osb:paint="solid"><stop id="stop1923" offset="0" style="stop-color:#38407c;stop-opacity:1"/></linearGradient><linearGradient id="linearGradient1925" osb:paint="solid"><stop id="stop1927" offset="0" style="stop-color:#30376c;stop-opacity:1"/></linearGradient><linearGradient id="linearGradient1929" osb:paint="solid"><stop id="stop1931" offset="0" style="stop-color:#8952e1;stop-opacity:1"/></linearGradient><linearGradient id="linearGradient1933" osb:paint="solid"><stop id="stop1935" offset="0" style="stop-color:#473cc7;stop-opacity:1"/></linearGradient><linearGradient id="linearGradient1937" osb:paint="solid"><stop id="stop1939" offset="0" style="stop-color:#1c4fc2;stop-opacity:1"/></linearGradient><linearGradient id="linearGradient1941" osb:paint="solid"><stop id="stop1943" offset="0" style="stop-color:#fff;stop-opacity:1"/></linearGradient><linearGradient id="linearGradient1945" osb:paint="solid"><stop id="stop1947" offset="0" style="stop-color:#0e6183;stop-opacity:1"/></linearGradient><linearGradient id="linearGradient1949" osb:paint="solid"><stop id="stop1951" offset="0" style="stop-color:#06a79f;stop-opacity:1"/></linearGradient><linearGradient id="linearGradient1953" osb:paint="solid"><stop id="stop1955" offset="0" style="stop-color:#61e9d1;stop-opacity:1"/></linearGradient><linearGradient id="linearGradient1957" osb:paint="solid"><stop id="stop1959" offset="0" style="stop-color:#9afcfd;stop-opacity:1"/></linearGradient><linearGradient id="linearGradient1961" osb:paint="solid"><stop id="stop1963" offset="0" style="stop-color:#7696ed;stop-opacity:1"/></linearGradient><linearGradient id="linearGradient1965" osb:paint="solid"><stop id="stop1967" offset="0" style="stop-color:#000;stop-opacity:1"/></linearGradient><linearGradient id="linearGradient1969" osb:paint="solid"><stop id="stop1971" offset="0" style="stop-color:#fff;stop-opacity:1"/></linearGradient><linearGradient id="linearGradient1973" osb:paint="solid"><stop id="stop1975" offset="0" style="stop-color:#6196f5;stop-opacity:1"/></linearGradient><linearGradient id="linearGradient1977" osb:paint="solid"><stop id="stop1979" offset="0" style="stop-color:#9f9dce;stop-opacity:1"/></linearGradient><linearGradient id="linearGradient1981" osb:paint="solid"><stop id="stop1983" offset="0" style="stop-color:#000;stop-opacity:1"/></linearGradient><linearGradient id="linearGradient1985" osb:paint="solid"><stop id="stop1987" offset="0" style="stop-color:#fff;stop-opacity:1"/></linearGradient><linearGradient id="linearGradient1989" osb:paint="solid"><stop id="stop1991" offset="0" style="stop-color:#9791f1;stop-opacity:1"/></linearGradient><linearGradient id="linearGradient1993" osb:paint="solid"><stop id="stop1995" offset="0" style="stop-color:#c4bff9;stop-opacity:1"/></linearGradient><linearGradient id="linearGradient1997" osb:paint="solid"><stop id="stop1999" offset="0" style="stop-color:#7e79cb;stop-opacity:1"/></linearGradient><linearGradient id="linearGradient2001" osb:paint="solid"><stop id="stop2003" offset="0" style="stop-color:#9f9dce;stop-opacity:1"/></linearGradient></g><linearGradient id="linearGradient4315" x1="762.592" x2="1215.953" y1="698.621" y2="698.621" gradientUnits="userSpaceOnUse" xlink:href="#linearGradient1917"/><clipPath id="clipPath4327" clipPathUnits="userSpaceOnUse"><path id="path4329" d="M 889.1875,531.3125 714.96875,586.96875 769.59375,726 c 39.10543,18.40256 88.92482,19.43211 125.21875,-11.75 l -5.625,-182.9375 z m 5.625,182.9375 C 904.26937,775.84744 877.1885,798.59106 800,783 l 46.40625,94 395.24995,23.46875 -8.5,-145.71875 -338.3437,-40.5 z"/></clipPath><clipPath id="clipPath4369" clipPathUnits="userSpaceOnUse"><path style="fill:url(#linearGradient4315);fill-opacity:1;stroke:none" id="path4371" d="m 772.79825,712.75322 c 0.78094,2.32625 1.61229,4.66426 2.49564,7.0109 0.88336,2.34664 1.81872,4.70192 2.80758,7.06256 0.98887,2.36064 2.03124,4.72664 3.12851,7.09456 1.09727,2.36793 2.24944,4.73777 3.45778,7.10597 1.20835,2.36819 2.47287,4.73472 3.79473,7.09588 1.32186,2.36116 2.70106,4.71695 4.13863,7.06352 1.43758,2.34656 2.93353,4.68391 4.48875,7.00808 1.55523,2.32417 3.16974,4.63517 4.8443,6.92893 1.67456,2.29376 3.40916,4.57029 5.20444,6.82545 1.79528,2.25515 3.65124,4.48894 5.56834,6.69714 1.9171,2.2082 3.89535,4.39083 5.93506,6.54362 2.03972,2.15279 4.1409,4.27574 6.30371,6.36458 2.1628,2.08884 4.38723,4.14356 6.67327,6.15988 l 90.02235,-18.4555 -21.46965,-96.35783 z"/></clipPath><clipPath id="clipPath4541" clipPathUnits="userSpaceOnUse"><path id="path4543" d="m 968.94568,588.75399 c 34.36462,-49.70916 86.99032,-76.52678 121.99192,-91.23734 35.0017,-14.71056 87.9489,-29.17009 126.6575,-18.64864 38.7086,10.52144 82.6236,8.97631 111.734,-38.86801 l -310.032,-42.9393 z"/></clipPath><clipPath id="clipPath4550" clipPathUnits="userSpaceOnUse"><path id="path4552" d="m 968.94568,588.75399 c 34.36462,-49.70916 86.99032,-76.52678 121.99192,-91.23734 35.0017,-14.71056 87.9489,-29.17009 126.6575,-18.64864 38.7086,10.52144 82.6236,8.97631 111.734,-38.86801 l -5.8786,67.98722 -198.3387,216.23003 -171.24598,-6.64537 z"/></clipPath><clipPath id="clipPath4662" clipPathUnits="userSpaceOnUse"><path id="path4664" d="m 1076.4289,592.75146 a 87.111938,129.4028 0 1 1 -174.22388,0 87.111938,129.4028 0 1 1 174.22388,0 z" transform="matrix(0.93156767,0,-0.01624468,0.97845116,139.33308,8.4537629)" style="color:#000;fill:#000;fill-opacity:1;stroke:none;stroke-width:1.04742575;marker:none;visibility:visible;display:inline;overflow:visible;enable-background:accumulate"/></clipPath><clipPath id="clipPath4550-6" clipPathUnits="userSpaceOnUse"><path id="path4552-0" d="m 968.94568,588.75399 c 34.36462,-49.70916 86.99032,-76.52678 121.99192,-91.23734 35.0017,-14.71056 87.9489,-29.17009 126.6575,-18.64864 38.7086,10.52144 82.6236,8.97631 111.734,-38.86801 l -5.8786,67.98722 -198.3387,216.23003 -171.24598,-6.64537 z"/></clipPath><clipPath id="clipPath4700" clipPathUnits="userSpaceOnUse"><path id="path4702" d="m 977.89137,707.46696 c -11.25654,-198.19719 95.82693,-268.26675 155.35833,-274.80817 59.5314,-6.54142 83.187,53.52932 83.8749,107.02172 0.6879,53.49239 -29.6229,168.44735 -239.23323,167.78645 z" clip-path="url(#clipPath4550-6)" transform="translate(-2.1520889e-6,0)" style="fill:#fff;fill-opacity:1;stroke:none;display:inline"/></clipPath><clipPath id="clipPath5079" clipPathUnits="userSpaceOnUse"><path id="path5081" d="M 840.40625,453.375 C 809.99968,500.55806 794.08594,561.42194 799.75,639.9375 l 63.0625,-48.625 c 10.53115,-65.64417 6.00469,-108.06526 -22.40625,-137.9375 z" style="fill:#fff;fill-opacity:1;stroke:none;display:inline"/></clipPath><clipPath id="clipPath5430" clipPathUnits="userSpaceOnUse"><rect style="color:#000;fill:#fff;fill-opacity:1;fill-rule:nonzero;stroke:none;stroke-width:15;marker:none;visibility:visible;display:inline;overflow:visible;enable-background:accumulate" id="rect5432" width="1525.367" height="1190.032" x="0" y="-110.032"/></clipPath></defs><path id="path3924-1-4-1" fill="#401d85" d="M 27.419827,6.7310388 C 25.983245,5.6969515 24.643536,6.6250594 23.797757,7.1692223 21.343341,4.4116201 17.728866,3.9334419 17.574824,6.370702 16.037585,5.4885954 14.03731,4.8187954 13.344657,6.3730494 12.73622,4.1497177 7.3949018,4.2945681 7.8983738,7.4303882 3.1792463,4.1747784 -0.0484479,10.494728 2.584662,12.268755 c -0.4976019,0.36444 -0.02163,1.284989 0.3957933,1.412134 -0.2164646,0.06666 -0.299172,0.199828 -0.1749308,0.394088 -1.0607938,-0.5536 -1.7518842,0.318955 -1.7723214,0.913304 C 5.6384074,17.457076 11.98606,19.721876 16.716942,19.881296 23.007106,20.093265 26.292985,9.3961 27.419673,6.7310592 Z" style="stroke-width:.00717347"/><path id="path3963-8-7" fill="#96e0f9" d="m 11.222205,6.623291 c 3.69519,-0.912354 6.578043,3.094313 6.131475,5.574919 -0.547546,3.041532 -6.225047,3.939094 -7.993385,-0.245394 1.776463,0.55118 3.375253,0.162109 3.831401,-1.141128 0.526289,-1.503648 -0.04545,-3.33082 -1.969659,-4.188375 z" style="stroke-width:.0056031"/><path style="opacity:.2" id="path2" d="M 12.815439,22.470836 19.653996,10.243152 28.385468,16.459689 16.995,25.975595 Z"/><circle style="opacity:.2" id="circle4" cx="15.5" cy="23.5" r="4.5"/><circle style="opacity:.2" id="circle6" cx="5.5" cy="15.5" r="4.5"/><path style="fill:#2d4461" id="path8" d="M 12.815439,21.470836 19.653996,9.2431521 28.385468,15.459689 16.995,24.975595 Z"/><circle style="opacity:.2" id="circle10" cx="24" cy="13" r="7"/><circle style="fill:#3b597f" id="circle12" cx="24" cy="12" r="7"/><circle style="fill:#3b597f" id="circle14" cx="15.5" cy="22.5" r="4.5"/><circle style="fill:#3b597f" id="circle16" cx="5.5" cy="14.5" r="4.5"/><path style="opacity:.1;fill:#fff" id="path18" d="M 15.5 18 A 4.5 4.5 0 0 0 11 22.5 A 4.5 4.5 0 0 0 11.033203 22.988281 A 4.5 4.5 0 0 1 15.5 19 A 4.5 4.5 0 0 1 19.966797 23.011719 A 4.5 4.5 0 0 0 20 22.5 A 4.5 4.5 0 0 0 15.5 18 z"/><path style="opacity:.2;fill:none;stroke:#000;stroke-width:5;stroke-linecap:round" id="path20" d="m 5.5,15.499663 10,8"/><path style="fill:none;stroke:#3db8ff;stroke-width:5;stroke-linecap:round" id="path22" d="m 5.5,14.5 10,8"/><circle style="opacity:.2" id="circle24" cx="24" cy="13" r="4"/><circle style="fill:#3db8ff" id="circle26" cx="24" cy="12" r="4"/><path style="opacity:.1;fill:#fff" id="path28" d="M 24 5 A 7 7 0 0 0 17 12 A 7 7 0 0 0 17.023438 12.541016 A 7 7 0 0 1 24 6 A 7 7 0 0 1 30.976562 12.458984 A 7 7 0 0 0 31 12 A 7 7 0 0 0 24 5 z"/><path style="opacity:.1;fill:#fff" id="path30" d="M 5.5 10 A 4.5 4.5 0 0 0 1 14.5 A 4.5 4.5 0 0 0 1.0332031 14.988281 A 4.5 4.5 0 0 1 5.5 11 A 4.5 4.5 0 0 1 9.9667969 15.011719 A 4.5 4.5 0 0 0 10 14.5 A 4.5 4.5 0 0 0 5.5 10 z"/><path style="opacity:.2;fill:#fff" id="path32" d="M 24 8 A 4 4 0 0 0 20 12 A 4 4 0 0 0 20.035156 12.494141 A 4 4 0 0 1 24 9 A 4 4 0 0 1 27.964844 12.505859 A 4 4 0 0 0 28 12 A 4 4 0 0 0 24 8 z"/><path style="opacity:.2;fill:#fff" id="path34" d="M 5.4453125 11.978516 A 2.50025 2.50025 0 0 0 3.0253906 14.978516 A 2.50025 2.50025 0 0 1 5.4453125 12.978516 A 2.50025 2.50025 0 0 1 7.0625 13.546875 L 17.0625 21.546875 A 2.5012204 2.5012204 0 0 1 17.947266 23.001953 A 2.5012204 2.5012204 0 0 0 17.0625 20.546875 L 7.0625 12.546875 A 2.50025 2.50025 0 0 0 5.4453125 11.978516 z"/></svg>